<svg width="22" height="22" viewBox="0 0 22 22" fill="none" xmlns="http://www.w3.org/2000/svg">
<path d="M15.8364 13.93H14.8364L14.4865 13.5881C15.2765 12.6688 15.8565 11.5859 16.1765 10.417C16.5065 9.24815 16.5665 8.02215 16.3565 6.82665C15.7665 3.30655 12.8265 0.495648 9.2765 0.0651484C8.0265 -0.0925516 6.76643 0.0369487 5.57643 0.443849C4.38643 0.850649 3.30652 1.52405 2.41652 2.41245C1.52652 3.30085 0.846422 4.38065 0.446422 5.56935C0.0364223 6.75795 -0.0935826 8.02395 0.0664174 9.27035C0.496417 12.8157 3.30643 15.7533 6.82643 16.3484C8.02643 16.5536 9.25653 16.4921 10.4265 16.1681C11.5965 15.8442 12.6764 15.2657 13.5964 14.4745L13.9364 14.829V15.8293L19.3264 21.2106C19.8464 21.7297 20.6864 21.7297 21.2064 21.2106C21.7264 20.6915 21.7264 19.8431 21.2064 19.324L15.8364 13.93ZM8.23646 13.93C5.08646 13.93 2.53651 11.3849 2.53651 8.23215C2.53651 5.07925 5.08646 2.53425 8.23646 2.53425C11.3865 2.53425 13.9364 5.07925 13.9364 8.23215C13.9364 11.3849 11.3865 13.93 8.23646 13.93Z" fill="#3D348B"/>
</svg>
